<svg xmlns="http://www.w3.org/2000/svg" viewBox="0 0 32 32" fill="none">
  <circle cx="16" cy="16" r="16" fill="#0d1520"/>
  <path d="M16 6C11 6 7 10.5 6.5 15c2-2 5-3 8-2 1 .4 2 1 3 1s2-.6 3-1c3-1 6 0 8 2C28 10.5 21 6 16 6z" fill="#00d4c8" opacity="0.9"/>
  <path d="M7 17.5C6.5 20 7.5 23 10 25c3 3 7 3.5 10.5 2.5C17 26.5 14.5 24.5 14 22.5c-.5-2 0-4 1-5-2 .4-5 .4-8 2z" fill="#00d4c8" opacity="0.7"/>
  <path d="M25 17.5c-3-1.6-6-1.6-8-2 1 1 1.5 3 1 5-.5 2-3 4-6.5 5C15 26.5 19 26 22 23c3-3 3.5-5 3-5.5z" fill="#f5a830" opacity="0.8"/>
</svg>
